<?xml version="1.0" encoding="utf-8"?>
<!-- Generator: Adobe Illustrator 25.2.1, SVG Export Plug-In . SVG Version: 6.00 Build 0)  -->
<svg version="1.1" id="Layer_1" xmlns="http://www.w3.org/2000/svg" xmlns:xlink="http://www.w3.org/1999/xlink" x="0px" y="0px"
	 viewBox="0 0 1200 1200" style="enable-background:new 0 0 1200 1200;" xml:space="preserve">
<style type="text/css">
	.st0{display:none;}
	.st1{display:inline;}
	.st2{font-family:'Knigsberg';}
	.st3{font-size:19px;}
	.st4{fill:#CF3C27;}
	.st5{fill:#F9F9F9;}
	.st6{fill:#F7B31C;}
</style>
<g class="st0">
	<defs>
		<polygon id="SVGID_1_" points="104.91,114.78 1116.47,121.6 1119.95,970.78 104.91,974.33 		"/>
	</defs>
	<clipPath id="SVGID_2_" class="st1">
		<use xlink:href="#SVGID_1_"  style="overflow:visible;"/>
	</clipPath>
</g>
<g class="st0">
	<defs>
		<rect id="SVGID_3_" x="104.91" y="115.91" width="1007.33" height="846.39"/>
	</defs>
	<clipPath id="SVGID_4_" class="st1">
		<use xlink:href="#SVGID_3_"  style="overflow:visible;"/>
	</clipPath>
</g>
<text transform="matrix(1 0 0 1 955.0699 269.8368)" class="st0 st2 st3">ONWORDS</text>
<path class="st4" d="M365.03,221.07c26.04-13.35,53.35-24.19,81.45-32.24c28.09-8.06,56.96-13.33,86.03-15.72
	c58.16-4.8,117.11,2.05,172.45,19.81c55.35,17.77,107.07,46.44,151.24,83.92c22.1,18.72,42.31,39.63,60.27,62.28
	c17.96,22.65,33.66,47.06,46.88,72.7c13.16,25.68,23.84,52.6,31.77,80.29c7.94,27.69,13.13,56.14,15.48,84.79
	c4.73,57.32-2.04,115.42-19.55,169.97c-17.52,54.55-45.79,105.52-82.73,149.05c-18.46,21.77-39.05,41.69-61.38,59.38
	c-22.33,17.7-46.38,33.16-71.66,46.19c25.03-13.5,48.75-29.39,70.66-47.44c21.91-18.04,42.02-38.23,59.93-60.18
	c35.85-43.89,62.82-94.83,79.08-148.91c16.25-54.08,21.78-111.24,16.11-167.21c-2.82-27.98-8.41-55.65-16.65-82.48
	c-8.24-26.83-19.12-52.82-32.37-77.53c-13.31-24.67-28.97-48.03-46.75-69.62c-17.78-21.59-37.67-41.39-59.3-59.03
	c-43.24-35.31-93.44-61.88-146.72-77.89c-53.28-16-109.61-21.44-164.73-15.85c-27.56,2.78-54.81,8.29-81.24,16.41
	c-26.43,8.12-52.03,18.84-76.37,31.9l-0.02,0.01c-6.22,3.34-13.97,1-17.31-5.22c-3.34-6.22-1-13.97,5.22-17.31
	C364.87,221.15,364.98,221.09,365.03,221.07z"/>
<path class="st5" d="M968.44,633.07l-1.02,14.56l-0.26,3.64c-0.08,1.21-0.16,2.43-0.33,3.63l-0.88,7.25l-0.88,7.24l-0.44,3.62
	c-0.16,1.21-0.4,2.4-0.6,3.6L961.55,691c-0.36,2.41-0.98,4.76-1.49,7.14l-1.6,7.12l-1.61,7.11l-1.95,7.03l-1.96,7.03
	c-0.68,2.33-1.24,4.7-2.06,6.99l-4.61,13.84c-0.4,1.15-0.74,2.32-1.19,3.45l-1.32,3.4l-2.64,6.79l-2.65,6.79
	c-0.95,2.24-1.97,4.44-2.95,6.66l-2.97,6.65c-1.02,2.2-1.92,4.46-3.07,6.61l-6.59,12.99c-1.06,2.19-2.3,4.27-3.49,6.39l-3.61,6.33
	l-3.61,6.32l-3.9,6.14l-3.91,6.14c-1.3,2.05-2.58,4.11-4.02,6.06l-8.39,11.88c-11.6,15.55-24.2,30.32-37.78,44.15
	c-13.74,13.67-28.37,26.4-43.79,38.1c-15.54,11.55-31.9,21.94-48.85,31.25l-12.88,6.66c-2.12,1.15-4.35,2.11-6.54,3.12l-6.59,3.01
	l-6.6,3l-6.73,2.69l-6.73,2.69c-2.24,0.9-4.48,1.82-6.78,2.56l-13.7,4.7l-1.71,0.59l-1.74,0.51l-3.48,1.01l-6.96,2.01
	c-2.32,0.66-4.63,1.36-6.96,1.99l-7.05,1.67l-7.05,1.66c-2.35,0.56-4.69,1.14-7.07,1.53l-14.24,2.62c-2.36,0.49-4.77,0.73-7.16,1.06
	l-7.17,0.95l-7.17,0.95l-7.21,0.6l-7.21,0.59l-3.6,0.29l-1.8,0.15l-1.81,0.06l-14.45,0.45l-3.61,0.11c-1.2,0-2.41-0.04-3.61-0.06
	l-7.22-0.14c-9.64,0.02-19.23-0.91-28.84-1.54c-4.79-0.48-9.56-1.13-14.34-1.69c-2.39-0.31-4.78-0.54-7.16-0.91l-7.11-1.23
	l-7.11-1.23c-2.37-0.41-4.75-0.78-7.09-1.36l-14.08-3.17c-2.36-0.48-4.66-1.17-6.98-1.81l-6.95-1.94l-6.95-1.94
	c-2.29-0.72-4.57-1.51-6.85-2.26l-6.84-2.28l-3.42-1.14l-1.71-0.58l-1.68-0.65l-13.44-5.23c-1.11-0.45-2.25-0.84-3.34-1.34
	l-3.29-1.47l-6.58-2.94l-6.58-2.94c-2.16-1.06-4.29-2.16-6.43-3.24l-6.42-3.26c-2.13-1.1-4.31-2.12-6.37-3.36l-12.51-7.14
	c-16.43-9.93-32.25-20.86-47.15-32.95c-14.8-12.21-28.76-25.39-41.79-39.45c-12.83-14.24-24.69-29.31-35.5-45.11
	c-10.69-15.89-20.12-32.58-28.5-49.76l-5.96-13.05c-1.04-2.15-1.85-4.4-2.76-6.62l-2.66-6.66c-0.88-2.22-1.79-4.43-2.64-6.66
	l-2.33-6.78l-2.33-6.78l-1.16-3.39c-0.4-1.12-0.68-2.29-1.03-3.43l-3.98-13.76l-0.5-1.72l-0.42-1.74l-0.82-3.49l-1.64-6.97
	c-0.54-2.32-1.11-4.64-1.63-6.97l-1.3-7.04l-1.29-7.04c-0.42-2.35-0.9-4.69-1.17-7.06l-1.88-14.19c-0.36-2.36-0.51-4.74-0.71-7.12
	l-0.58-7.13l-0.58-7.13c-0.15-2.38-0.17-4.76-0.26-7.15c-0.13-4.77-0.34-9.53-0.39-14.29c0.24-9.53,0.16-19.06,1.04-28.56l0.5-7.13
	c0.09-1.19,0.15-2.38,0.26-3.56l0.43-3.55l1.72-14.18l0.22-1.77l0.3-1.76l0.61-3.52l1.22-7.04l1.23-7.03l1.57-6.97l1.57-6.96
	c0.54-2.32,0.99-4.66,1.68-6.93l3.83-13.75c0.59-2.3,1.37-4.55,2.12-6.81l2.25-6.77l2.26-6.77c0.82-2.23,1.71-4.44,2.57-6.65
	l2.59-6.64l1.29-3.32l0.65-1.66l0.73-1.63l5.82-13.01c0.93-2.19,2.03-4.3,3.1-6.41l3.22-6.35l3.22-6.35l3.52-6.19l3.53-6.19
	c1.18-2.06,2.31-4.15,3.63-6.12l7.65-12.01c10.6-15.75,22.19-30.82,34.83-44.97c12.78-14.02,26.48-27.16,40.99-39.35
	c14.66-12.01,30.15-22.97,46.27-32.88l12.28-7.11c2.02-1.23,4.14-2.29,6.24-3.37l6.3-3.26l6.3-3.25l6.45-2.95l6.45-2.95
	c2.15-0.98,4.28-2,6.5-2.83l13.17-5.25c2.17-0.93,4.45-1.6,6.67-2.39l6.7-2.3c2.24-0.76,4.46-1.55,6.71-2.28l6.81-1.97l6.81-1.97
	l3.4-0.98c1.13-0.34,2.29-0.56,3.44-0.85l13.79-3.25c2.29-0.6,4.63-0.92,6.94-1.38l6.96-1.28l6.96-1.27l7.02-0.93l7.02-0.93
	c2.34-0.29,4.67-0.68,7.03-0.82l14.1-1.15c1.18-0.09,2.35-0.21,3.53-0.26l3.54-0.11l7.07-0.22l7.07-0.22c1.18-0.06,2.36-0.03,3.53,0
	l3.53,0.07l14.13,0.28l-14.13-0.08l-3.53-0.02c-1.18-0.01-2.36-0.02-3.53,0.05l-7.06,0.32l-7.06,0.32l-3.53,0.16
	c-1.17,0.07-2.34,0.21-3.52,0.31l-14.06,1.35c-2.35,0.17-4.67,0.6-7,0.92l-6.98,1.03l-6.98,1.03l-6.92,1.37l-6.92,1.37
	c-2.3,0.49-4.63,0.84-6.9,1.47l-13.68,3.43c-1.14,0.3-2.29,0.54-3.41,0.89l-3.37,1.03l-6.75,2.05l-6.75,2.05
	c-2.23,0.75-4.43,1.58-6.64,2.36l-6.63,2.38c-2.2,0.82-4.45,1.52-6.6,2.47L421.58,266c-2.19,0.86-4.29,1.91-6.42,2.91l-6.37,3.02
	l-6.36,3.02l-6.21,3.32l-6.21,3.32c-2.07,1.1-4.15,2.19-6.14,3.43l-12.08,7.23c-15.85,10.06-31.03,21.13-45.37,33.22
	c-14.19,12.26-27.55,25.45-39.97,39.47c-12.28,14.15-23.5,29.18-33.73,44.85l-7.37,11.94c-1.27,1.96-2.35,4.04-3.49,6.08l-3.39,6.14
	l-3.38,6.14l-3.08,6.3l-3.08,6.3c-1.03,2.1-2.08,4.18-2.96,6.35l-5.54,12.87l-0.69,1.61l-0.62,1.64l-1.22,3.28l-2.45,6.56
	c-0.81,2.19-1.65,4.37-2.43,6.57l-2.12,6.68l-2.12,6.67c-0.71,2.22-1.44,4.44-1.99,6.71l-3.57,13.54c-0.65,2.24-1.05,4.55-1.55,6.82
	l-1.44,6.85l-1.44,6.85l-1.11,6.91l-1.1,6.91l-0.55,3.45l-0.27,1.73l-0.19,1.74l-1.49,13.91l-0.37,3.48
	c-0.09,1.16-0.14,2.33-0.21,3.49l-0.39,6.98c-0.73,9.3-0.52,18.63-0.63,27.95c0.12,4.66,0.4,9.31,0.58,13.96
	c0.12,2.33,0.17,4.65,0.35,6.98l0.67,6.95l0.67,6.95c0.23,2.32,0.4,4.64,0.79,6.93l2.03,13.81c0.29,2.31,0.79,4.58,1.24,6.87
	l1.36,6.84l1.36,6.84c0.53,2.26,1.12,4.51,1.68,6.77l1.7,6.77l0.85,3.38l0.43,1.69l0.51,1.67l4.06,13.34
	c0.35,1.11,0.64,2.23,1.05,3.32l1.18,3.28l2.36,6.56l2.35,6.56c0.86,2.16,1.78,4.29,2.66,6.44l2.67,6.43
	c0.91,2.14,1.73,4.31,2.77,6.39l5.97,12.59c8.38,16.57,17.76,32.63,28.33,47.89c10.7,15.16,22.39,29.6,34.99,43.2
	c12.8,13.42,26.47,25.96,40.92,37.55c14.55,11.47,29.95,21.78,45.91,31.13l12.14,6.7c2,1.16,4.11,2.11,6.18,3.14l6.23,3.05
	c2.08,1.01,4.14,2.05,6.23,3.03l6.37,2.74l6.36,2.74l3.18,1.37c1.05,0.47,2.16,0.82,3.23,1.24l12.98,4.84l1.62,0.61l1.65,0.53
	l3.3,1.05l6.6,2.1c2.2,0.69,4.39,1.42,6.6,2.08l6.7,1.76l6.69,1.76c2.23,0.58,4.45,1.22,6.72,1.64l13.54,2.85
	c2.25,0.53,4.53,0.84,6.81,1.21l6.83,1.08l6.83,1.08c2.28,0.32,4.58,0.51,6.87,0.77c4.59,0.47,9.16,1.03,13.76,1.43
	c9.21,0.46,18.4,1.24,27.63,1.08l6.91,0.04c1.15,0,2.3,0.03,3.45,0.01l3.45-0.16l13.8-0.62l1.72-0.08l1.72-0.17l3.44-0.33l6.87-0.66
	l6.87-0.67l6.83-1.01l6.83-1c2.27-0.35,4.56-0.61,6.81-1.11l13.53-2.69c2.27-0.4,4.49-0.99,6.72-1.55l6.69-1.68l6.69-1.68
	c2.21-0.63,4.4-1.33,6.6-1.99l6.59-2.01l3.3-1l1.65-0.51l1.62-0.58l12.97-4.66c2.18-0.73,4.29-1.64,6.41-2.52l6.36-2.64l6.36-2.64
	l6.23-2.95l6.22-2.95c2.07-0.99,4.17-1.92,6.17-3.05l12.14-6.49c15.96-9.08,31.34-19.14,45.91-30.29
	c14.45-11.3,28.13-23.55,40.94-36.65c12.65-13.26,24.35-27.39,35.09-42.21l7.76-11.32c1.33-1.86,2.51-3.82,3.71-5.77l3.6-5.84
	l3.6-5.84l3.31-6l3.31-6c1.1-2,2.25-3.98,3.21-6.06l6.03-12.31c1.06-2.03,1.87-4.17,2.79-6.25l2.71-6.29
	c0.89-2.1,1.83-4.19,2.69-6.3l2.39-6.42l2.39-6.41l1.2-3.21c0.41-1.06,0.71-2.17,1.07-3.25l4.14-13.05
	c0.75-2.16,1.23-4.39,1.83-6.59l1.74-6.62l1.74-6.62l1.41-6.7l1.41-6.69c0.45-2.24,1.01-4.45,1.31-6.71l2.14-13.51
	c0.17-1.13,0.38-2.25,0.51-3.38l0.36-3.4l0.73-6.8l0.73-6.8c0.15-1.13,0.2-2.27,0.26-3.41l0.19-3.41l0.77-13.65l0.04-0.64
	c0.4-7.05,6.43-12.44,13.48-12.05c7.05,0.4,12.44,6.43,12.05,13.48C968.45,632.93,968.44,633.04,968.44,633.07z"/>
<path class="st6" d="M240.36,499.03l4.61-11.95l1.15-2.99c0.38-1,0.76-1.99,1.21-2.96l2.6-5.85l2.61-5.85l1.3-2.92
	c0.45-0.97,0.95-1.91,1.43-2.86l5.79-11.42c0.92-1.92,2.05-3.74,3.09-5.6l3.18-5.55l3.18-5.55l3.45-5.39l3.45-5.39
	c1.17-1.78,2.25-3.62,3.53-5.33l7.43-10.41c1.21-1.76,2.54-3.42,3.87-5.09l3.97-5.01l3.97-5.01c1.37-1.63,2.8-3.22,4.19-4.83
	l4.21-4.81c1.42-1.59,2.76-3.25,4.27-4.75l8.88-9.19c1.45-1.56,3.03-2.99,4.58-4.45l4.65-4.37l4.66-4.37l4.86-4.14l4.86-4.14
	c1.62-1.38,3.22-2.78,4.93-4.05l10.1-7.8c13.74-10.04,28.11-19.18,43.05-27.27c15.04-7.91,30.59-14.81,46.53-20.64
	c16-5.68,32.4-10.16,49-13.6l12.52-2.26c2.08-0.42,4.19-0.65,6.29-0.93l6.3-0.82l6.3-0.82l6.34-0.52l6.33-0.52
	c2.11-0.17,4.22-0.37,6.34-0.4l12.7-0.41c2.12-0.12,4.23,0.02,6.35,0.02l6.35,0.11c2.12,0.05,4.23,0.05,6.35,0.13l6.34,0.42
	l6.33,0.42c2.11,0.14,4.22,0.26,6.32,0.54l12.61,1.48c2.11,0.2,4.18,0.62,6.27,0.95l6.26,1.05l6.25,1.05l6.2,1.35l6.19,1.37
	l3.1,0.68c1.03,0.22,2.06,0.46,3.08,0.75l12.23,3.35l3.05,0.84c1.01,0.31,2.01,0.65,3.01,0.98l6.02,1.98
	c8.08,2.47,15.88,5.73,23.77,8.73c3.89,1.64,7.72,3.41,11.58,5.11c1.92,0.87,3.87,1.69,5.77,2.61l5.65,2.86l5.64,2.87
	c1.88,0.96,3.78,1.88,5.59,2.97l10.98,6.29c1.85,1.01,3.61,2.19,5.38,3.32l5.33,3.41l5.32,3.42c1.73,1.2,3.44,2.44,5.16,3.66
	l5.15,3.67c1.7,1.25,3.47,2.39,5.09,3.74l9.91,7.85c1.68,1.28,3.25,2.68,4.83,4.07l4.76,4.16l4.75,4.16
	c1.54,1.44,3.04,2.92,4.56,4.38l4.54,4.39c1.5,1.47,3.06,2.89,4.47,4.45l8.65,9.2c11.21,12.56,21.65,25.79,31.01,39.76
	c9.25,14.04,17.55,28.69,24.84,43.82c7.08,15.24,13.13,30.92,18.12,46.94c4.86,16.07,8.46,32.48,11.05,49.03l1.63,12.46
	c0.32,2.07,0.42,4.17,0.61,6.25l0.51,6.26c0.16,2.09,0.35,4.17,0.49,6.26l0.2,6.28l0.2,6.28c0.07,2.09,0.16,4.18,0.08,6.28
	l-0.22,12.55c0.01,2.09-0.22,4.18-0.33,6.27l-0.42,6.26c-0.15,2.09-0.26,4.18-0.44,6.26l-0.73,6.23l-0.73,6.23
	c-0.25,2.08-0.45,4.16-0.84,6.21l-2.08,12.37c-0.3,2.07-0.79,4.1-1.24,6.14l-1.35,6.12l-1.35,6.12c-0.49,2.03-1.09,4.03-1.62,6.05
	c-1.12,4.02-2.17,8.07-3.35,12.07c-2.65,7.92-5.05,15.93-8.23,23.65l-2.26,5.84c-0.38,0.97-0.74,1.95-1.14,2.91l-1.27,2.86
	l-5.1,11.43c-0.41,0.96-0.87,1.9-1.35,2.82l-1.42,2.79l-2.83,5.58l-2.84,5.57l-3.11,5.43l-3.11,5.43c-1.05,1.8-2.03,3.64-3.19,5.38
	l-6.75,10.53c-1.09,1.78-2.32,3.46-3.53,5.16l-3.63,5.09l-3.63,5.09c-1.26,1.66-2.58,3.27-3.86,4.91l-3.88,4.9
	c-1.31,1.61-2.53,3.31-3.94,4.84l-8.23,9.4c-1.34,1.59-2.81,3.07-4.25,4.57l-4.34,4.49l-4.34,4.49l-4.55,4.28l-4.55,4.27
	c-1.52,1.42-3.01,2.88-4.62,4.19l-9.5,8.09c-12.94,10.46-26.52,20.09-40.75,28.68c-14.31,8.44-29.17,15.92-44.46,22.39
	c-15.37,6.28-31.16,11.46-47.21,15.61l-12.12,2.79c-2.01,0.51-4.05,0.85-6.09,1.22l-6.12,1.1l-6.11,1.1l-6.16,0.81l-6.16,0.8
	c-2.05,0.26-4.1,0.57-6.17,0.7l-12.38,1.01c-2.06,0.22-4.13,0.2-6.2,0.29l-6.2,0.2c-2.07,0.06-4.14,0.15-6.2,0.18l-6.21-0.11
	l-6.2-0.11c-2.07-0.03-4.14-0.05-6.2-0.23l-12.38-0.83c-2.07-0.09-4.11-0.42-6.17-0.64l-6.16-0.72l-6.16-0.73l-6.11-1.03l-6.11-1.03
	c-2.03-0.36-4.08-0.63-6.09-1.12l-12.1-2.67c-1.01-0.23-2.02-0.43-3.02-0.69l-2.99-0.82l-5.97-1.64l-5.97-1.64
	c-1-0.25-1.98-0.58-2.96-0.91l-2.94-0.97l-11.76-3.87l11.81,3.7l2.95,0.92c0.98,0.31,1.97,0.62,2.97,0.86l5.99,1.55l5.99,1.55
	l2.99,0.77c1,0.25,2.02,0.42,3.03,0.64l12.12,2.48c2.01,0.46,4.06,0.7,6.1,1.03l6.11,0.94l6.11,0.94l6.15,0.63l6.15,0.63
	c2.05,0.18,4.09,0.48,6.15,0.54l12.34,0.64c2.05,0.15,4.11,0.14,6.17,0.14l6.18,0.01l6.17,0.01c2.06-0.06,4.11-0.18,6.17-0.27
	l6.17-0.29c2.05-0.12,4.11-0.13,6.16-0.38l12.29-1.18c2.05-0.15,4.08-0.49,6.12-0.78l6.1-0.89l6.1-0.89l6.05-1.18l6.05-1.18
	c2.02-0.39,4.04-0.77,6.03-1.3l11.97-2.95c15.85-4.35,31.4-9.72,46.51-16.15c15.03-6.62,29.6-14.23,43.6-22.77
	c13.92-8.69,27.16-18.39,39.75-28.87l9.23-8.1c1.57-1.32,3.01-2.78,4.48-4.19l4.41-4.27l4.41-4.27l4.2-4.48l4.2-4.48
	c1.4-1.49,2.82-2.97,4.11-4.55l7.94-9.35c1.36-1.53,2.53-3.21,3.8-4.81l3.74-4.86c1.24-1.63,2.51-3.23,3.72-4.87l3.49-5.04
	l3.49-5.04c1.16-1.68,2.35-3.35,3.39-5.1l6.46-10.41c1.12-1.71,2.05-3.53,3.05-5.31l2.97-5.36l2.97-5.36l2.7-5.5l2.69-5.5l1.35-2.75
	c0.46-0.91,0.9-1.83,1.28-2.78l4.82-11.26l1.2-2.81c0.37-0.95,0.71-1.91,1.07-2.87l2.12-5.74c3-7.59,5.22-15.46,7.7-23.22
	c1.1-3.93,2.06-7.89,3.1-11.83c0.5-1.98,1.05-3.94,1.5-5.93l1.23-5.99l1.23-5.99c0.41-2,0.85-3.98,1.12-6.01l1.85-12.08
	c0.35-2.01,0.52-4.04,0.73-6.06l0.62-6.08l0.62-6.07c0.14-2.03,0.22-4.07,0.33-6.1l0.32-6.1c0.08-2.03,0.28-4.06,0.24-6.1
	l0.03-12.21c0.05-2.03-0.07-4.07-0.17-6.1l-0.29-6.09l-0.29-6.09l-0.57-6.07l-0.58-6.07c-0.21-2.02-0.34-4.05-0.68-6.06l-1.76-12.07
	c-2.76-16.02-6.48-31.86-11.41-47.34c-5.06-15.43-11.14-30.51-18.19-45.12c-7.26-14.51-15.48-28.51-24.59-41.91
	c-9.22-13.33-19.47-25.91-30.41-37.82l-8.44-8.72c-1.37-1.49-2.9-2.82-4.36-4.21l-4.43-4.15l-4.43-4.14l-4.62-3.92l-4.62-3.92
	c-1.54-1.31-3.06-2.63-4.69-3.83l-9.61-7.38c-1.57-1.27-3.29-2.34-4.94-3.51l-4.98-3.45c-1.66-1.14-3.31-2.31-4.99-3.43l-5.15-3.19
	l-5.15-3.19c-1.72-1.06-3.41-2.16-5.2-3.1l-10.59-5.86c-1.74-1.02-3.58-1.87-5.39-2.76l-5.44-2.66l-5.43-2.66
	c-1.83-0.85-3.7-1.6-5.55-2.41c-3.72-1.57-7.4-3.21-11.14-4.73c-7.59-2.75-15.07-5.76-22.83-7.99l-5.77-1.81
	c-0.96-0.3-1.92-0.61-2.89-0.89l-2.93-0.75l-11.7-3.02c-0.97-0.27-1.95-0.48-2.94-0.67l-2.96-0.61l-5.92-1.21l-5.92-1.21l-5.97-0.91
	l-5.97-0.91c-1.99-0.29-3.97-0.66-5.98-0.82l-12.01-1.22c-2-0.25-4.01-0.33-6.02-0.43l-6.02-0.31l-6.02-0.31
	c-2.01-0.04-4.02-0.02-6.03-0.03l-6.03-0.01c-2.01,0.02-4.02-0.08-6.03,0.07l-12.04,0.57c-2.01,0.05-4.01,0.27-6.01,0.47l-6,0.58
	l-6,0.58l-5.96,0.87l-5.96,0.87c-1.99,0.3-3.98,0.54-5.94,0.97l-11.82,2.31c-15.67,3.5-31.12,7.96-46.16,13.55
	c-14.98,5.74-29.56,12.47-43.64,20.14c-13.98,7.84-27.38,16.66-40.16,26.29l-9.39,7.47c-1.59,1.21-3.08,2.55-4.58,3.87l-4.51,3.96
	l-4.51,3.95l-4.31,4.17l-4.31,4.17c-1.43,1.39-2.9,2.75-4.23,4.24l-8.2,8.74c-1.4,1.42-2.63,3.01-3.94,4.51l-3.88,4.57
	c-1.29,1.53-2.6,3.03-3.86,4.57l-3.64,4.75l-3.65,4.75c-1.22,1.58-2.45,3.15-3.55,4.82l-6.81,9.84c-1.18,1.61-2.15,3.36-3.22,5.04
	l-3.15,5.08l-3.15,5.08l-2.89,5.24l-2.89,5.23c-0.95,1.75-1.98,3.46-2.81,5.28l-5.25,10.74c-0.43,0.9-0.89,1.78-1.3,2.69l-1.17,2.75
	l-2.35,5.5l-2.35,5.5c-0.41,0.91-0.75,1.84-1.09,2.78l-1.03,2.81l-4.14,11.22l-0.2,0.55c-2.25,6.09-9.02,9.21-15.11,6.96
	c-6.09-2.25-9.21-9.02-6.96-15.11C240.31,499.16,240.35,499.07,240.36,499.03z"/>
<path class="st5" d="M274.29,1009.45c-2.95,0-5.91-1-8.34-3.04c-5.48-4.61-6.19-12.79-1.58-18.27l127.85-151.98
	c4.61-5.48,12.79-6.19,18.27-1.58c5.48,4.61,6.19,12.79,1.58,18.27l-127.85,151.98C281.66,1007.88,277.99,1009.45,274.29,1009.45z"
	/>
</svg>
